<svg width="86" height="86" viewBox="0 0 86 86" fill="none" xmlns="http://www.w3.org/2000/svg">
<g id="pajamas:scroll-down">
<path id="Vector" fill-rule="evenodd" clip-rule="evenodd" d="M53.75 75.25C53.75 78.1011 52.6174 80.8354 50.6014 82.8514C48.5854 84.8674 45.8511 86 43 86C40.149 86 37.4146 84.8674 35.3986 82.8514C33.3826 80.8354 32.25 78.1011 32.25 75.25C32.25 72.3989 33.3826 69.6646 35.3986 67.6486C37.4146 65.6326 40.149 64.5 43 64.5C45.8511 64.5 48.5854 65.6326 50.6014 67.6486C52.6174 69.6646 53.75 72.3989 53.75 75.25ZM63.3175 27.7296C62.5617 26.9747 61.5371 26.5507 60.4688 26.5507C59.4005 26.5507 58.3759 26.9747 57.62 27.7296L47.0313 38.3184V4.03125C47.0313 2.9621 46.6066 1.93673 45.8505 1.18073C45.0945 0.42472 44.0692 0 43 0C41.9309 0 40.9055 0.42472 40.1495 1.18073C39.3935 1.93673 38.9688 2.9621 38.9688 4.03125V38.3184L28.38 27.7296C27.6158 27.0175 26.6051 26.6299 25.5607 26.6483C24.5164 26.6667 23.5199 27.0898 22.7813 27.8284C22.0427 28.567 21.6196 29.5634 21.6012 30.6078C21.5828 31.6522 21.9704 32.6629 22.6825 33.4271L40.1513 50.8959L43 53.75L45.8488 50.9013L63.3175 33.4325C63.6921 33.0581 63.9893 32.6136 64.1921 32.1244C64.3948 31.6351 64.4992 31.1107 64.4992 30.5811C64.4992 30.0515 64.3948 29.527 64.1921 29.0378C63.9893 28.5485 63.6921 28.104 63.3175 27.7296Z" fill="#E5E5E5"/>
</g>
</svg>
